<svg width="20" height="20" viewBox="0 0 20 20" fill="none" xmlns="http://www.w3.org/2000/svg">
<rect width="20" height="20" rx="10" fill="#323238"/>
<path d="M10.2001 7.3975V9.57094L12.0061 10.6544C12.0971 10.709 12.1626 10.7976 12.1883 10.9005C12.214 11.0035 12.1977 11.1124 12.1431 11.2034C12.0885 11.2944 11.9999 11.3599 11.897 11.3856C11.794 11.4113 11.6851 11.395 11.5941 11.3404L9.59416 10.1404C9.53497 10.1049 9.48599 10.0546 9.452 9.99447C9.418 9.93437 9.40015 9.86649 9.40017 9.79743V7.3975C9.40017 7.29142 9.44231 7.18968 9.51732 7.11467C9.59233 7.03966 9.69407 6.99752 9.80016 6.99752C9.90624 6.99752 10.008 7.03966 10.083 7.11467C10.158 7.18968 10.2001 7.29142 10.2001 7.3975ZM14.6 6.19754C14.4939 6.19754 14.3922 6.23968 14.3172 6.31469C14.2422 6.38971 14.2 6.49144 14.2 6.59753V7.4975C13.8825 7.12951 13.5585 6.77502 13.1941 6.40603C12.527 5.73891 11.6781 5.28315 10.7535 5.0957C9.82894 4.90825 8.86961 4.99743 7.9954 5.3521C7.1212 5.70676 6.37089 6.31118 5.83824 7.08983C5.30559 7.86849 5.01421 8.78684 5.00051 9.73015C4.98681 10.6735 5.25139 11.5999 5.76121 12.3937C6.27102 13.1875 7.00345 13.8134 7.86699 14.1933C8.73052 14.5732 9.68687 14.6902 10.6165 14.5297C11.5462 14.3692 12.4079 13.9383 13.0941 13.2908C13.1323 13.2547 13.163 13.2114 13.1845 13.1634C13.206 13.1155 13.2178 13.0637 13.2193 13.0111C13.2208 12.9586 13.2119 12.9063 13.1931 12.8571C13.1744 12.808 13.1462 12.7631 13.1101 12.7248C13.0739 12.6866 13.0307 12.6559 12.9827 12.6344C12.9347 12.6129 12.8829 12.6011 12.8304 12.5996C12.7778 12.5981 12.7255 12.607 12.6764 12.6258C12.6272 12.6445 12.5823 12.6727 12.5441 12.7088C11.9721 13.2479 11.254 13.6064 10.4795 13.7398C9.70496 13.8732 8.90831 13.7754 8.18901 13.4587C7.46971 13.142 6.85965 12.6204 6.43501 11.9591C6.01037 11.2977 5.78997 10.526 5.80133 9.74011C5.81269 8.95426 6.05531 8.18917 6.49889 7.54039C6.94247 6.8916 7.56735 6.38787 8.2955 6.0921C9.02365 5.79633 9.8228 5.72162 10.5932 5.87731C11.3635 6.033 12.0709 6.41219 12.6271 6.96752C13.0341 7.3795 13.3905 7.77649 13.75 8.19748H12.6001C12.494 8.19748 12.3922 8.23962 12.3172 8.31463C12.2422 8.38965 12.2001 8.49138 12.2001 8.59747C12.2001 8.70355 12.2422 8.80529 12.3172 8.8803C12.3922 8.95531 12.494 8.99746 12.6001 8.99746H14.6C14.7061 8.99746 14.8078 8.95531 14.8828 8.8803C14.9579 8.80529 15 8.70355 15 8.59747V6.59753C15 6.49144 14.9579 6.38971 14.8828 6.31469C14.8078 6.23968 14.7061 6.19754 14.6 6.19754Z" fill="white"/>
</svg>
